<mxfile host="65bd71144e">
    <diagram name="Page-1" id="1GrMfoRmzw9oueDwr1QM">
        <mxGraphModel dx="671" dy="266" grid="1" gridSize="10" guides="1" tooltips="1" connect="1" arrows="1" fold="1" page="1" pageScale="1" pageWidth="827" pageHeight="1169" math="1" shadow="0">
            <root>
                <mxCell id="0"/>
                <mxCell id="1" parent="0"/>
                <mxCell id="w1Y-Avty2o6jiPsMjraB-3" value="" style="verticalLabelPosition=bottom;verticalAlign=top;html=1;shape=mxgraph.basic.rect;fillColor2=none;strokeWidth=1;size=20;indent=25;" parent="1" vertex="1">
                    <mxGeometry x="310" y="300" width="40" height="40" as="geometry"/>
                </mxCell>
                <mxCell id="w1Y-Avty2o6jiPsMjraB-5" value="" style="endArrow=none;html=1;rounded=0;endSize=4;startSize=5;jumpSize=6;sourcePerimeterSpacing=0;entryX=0.25;entryY=1;entryDx=0;entryDy=0;entryPerimeter=0;" parent="1" edge="1">
                    <mxGeometry width="50" height="50" relative="1" as="geometry">
                        <mxPoint x="340" y="305" as="sourcePoint"/>
                        <mxPoint x="320" y="335" as="targetPoint"/>
                    </mxGeometry>
                </mxCell>
                <mxCell id="w1Y-Avty2o6jiPsMjraB-6" value="" style="endArrow=none;html=1;rounded=0;" parent="1" edge="1">
                    <mxGeometry width="50" height="50" relative="1" as="geometry">
                        <mxPoint x="339" y="305" as="sourcePoint"/>
                        <mxPoint x="349" y="305" as="targetPoint"/>
                    </mxGeometry>
                </mxCell>
                <mxCell id="w1Y-Avty2o6jiPsMjraB-8" value="" style="endArrow=none;html=1;rounded=0;" parent="1" edge="1">
                    <mxGeometry width="50" height="50" relative="1" as="geometry">
                        <mxPoint x="311" y="335" as="sourcePoint"/>
                        <mxPoint x="321" y="335" as="targetPoint"/>
                    </mxGeometry>
                </mxCell>
                <mxCell id="w1Y-Avty2o6jiPsMjraB-17" value="" style="endArrow=classic;html=1;rounded=0;" parent="1" edge="1">
                    <mxGeometry width="50" height="50" relative="1" as="geometry">
                        <mxPoint x="270" y="320" as="sourcePoint"/>
                        <mxPoint x="310" y="320" as="targetPoint"/>
                    </mxGeometry>
                </mxCell>
                <mxCell id="w1Y-Avty2o6jiPsMjraB-19" value="$$P^* (pu)$$" style="text;html=1;align=center;verticalAlign=middle;resizable=0;points=[];autosize=1;strokeColor=none;fillColor=none;" parent="1" vertex="1">
                    <mxGeometry x="203" y="305" width="90" height="30" as="geometry"/>
                </mxCell>
                <mxCell id="w1Y-Avty2o6jiPsMjraB-20" value="X" style="whiteSpace=wrap;html=1;aspect=fixed;" parent="1" vertex="1">
                    <mxGeometry x="390" y="300" width="40" height="40" as="geometry"/>
                </mxCell>
                <mxCell id="w1Y-Avty2o6jiPsMjraB-21" value="" style="endArrow=classic;html=1;rounded=0;" parent="1" edge="1">
                    <mxGeometry width="50" height="50" relative="1" as="geometry">
                        <mxPoint x="350" y="320" as="sourcePoint"/>
                        <mxPoint x="390" y="320" as="targetPoint"/>
                    </mxGeometry>
                </mxCell>
                <mxCell id="w1Y-Avty2o6jiPsMjraB-22" value="" style="whiteSpace=wrap;html=1;aspect=fixed;" parent="1" vertex="1">
                    <mxGeometry x="470" y="300" width="40" height="40" as="geometry"/>
                </mxCell>
                <mxCell id="w1Y-Avty2o6jiPsMjraB-23" value="" style="endArrow=classic;html=1;rounded=0;entryX=0;entryY=0.5;entryDx=0;entryDy=0;exitX=1;exitY=0.5;exitDx=0;exitDy=0;" parent="1" source="w1Y-Avty2o6jiPsMjraB-20" target="w1Y-Avty2o6jiPsMjraB-22" edge="1">
                    <mxGeometry width="50" height="50" relative="1" as="geometry">
                        <mxPoint x="360" y="330" as="sourcePoint"/>
                        <mxPoint x="400" y="330" as="targetPoint"/>
                    </mxGeometry>
                </mxCell>
                <mxCell id="w1Y-Avty2o6jiPsMjraB-24" value="" style="endArrow=none;html=1;rounded=0;" parent="1" edge="1">
                    <mxGeometry width="50" height="50" relative="1" as="geometry">
                        <mxPoint x="500" y="304.67" as="sourcePoint"/>
                        <mxPoint x="490" y="304.67" as="targetPoint"/>
                    </mxGeometry>
                </mxCell>
                <mxCell id="w1Y-Avty2o6jiPsMjraB-25" value="" style="endArrow=none;html=1;rounded=0;" parent="1" edge="1">
                    <mxGeometry width="50" height="50" relative="1" as="geometry">
                        <mxPoint x="490" y="334.67" as="sourcePoint"/>
                        <mxPoint x="480" y="334.67" as="targetPoint"/>
                    </mxGeometry>
                </mxCell>
                <mxCell id="w1Y-Avty2o6jiPsMjraB-26" value="" style="endArrow=none;html=1;rounded=0;" parent="1" edge="1">
                    <mxGeometry width="50" height="50" relative="1" as="geometry">
                        <mxPoint x="490" y="304.67" as="sourcePoint"/>
                        <mxPoint x="490" y="334.67" as="targetPoint"/>
                    </mxGeometry>
                </mxCell>
                <mxCell id="w1Y-Avty2o6jiPsMjraB-27" value="$$P_{max}$$" style="text;html=1;align=center;verticalAlign=middle;resizable=0;points=[];autosize=1;strokeColor=none;fillColor=none;" parent="1" vertex="1">
                    <mxGeometry x="440" y="275" width="100" height="30" as="geometry"/>
                </mxCell>
                <mxCell id="w1Y-Avty2o6jiPsMjraB-28" value="$$P_{min}$$" style="text;html=1;align=center;verticalAlign=middle;resizable=0;points=[];autosize=1;strokeColor=none;fillColor=none;" parent="1" vertex="1">
                    <mxGeometry x="445" y="335" width="90" height="30" as="geometry"/>
                </mxCell>
                <mxCell id="w1Y-Avty2o6jiPsMjraB-29" value="" style="ellipse;whiteSpace=wrap;html=1;aspect=fixed;" parent="1" vertex="1">
                    <mxGeometry x="540" y="300" width="40" height="40" as="geometry"/>
                </mxCell>
                <mxCell id="w1Y-Avty2o6jiPsMjraB-30" value="" style="endArrow=classic;html=1;rounded=0;entryX=0;entryY=0.5;entryDx=0;entryDy=0;" parent="1" target="w1Y-Avty2o6jiPsMjraB-29" edge="1">
                    <mxGeometry width="50" height="50" relative="1" as="geometry">
                        <mxPoint x="510" y="320" as="sourcePoint"/>
                        <mxPoint x="480" y="330" as="targetPoint"/>
                    </mxGeometry>
                </mxCell>
                <mxCell id="w1Y-Avty2o6jiPsMjraB-31" value="" style="endArrow=classic;html=1;rounded=0;entryX=0.5;entryY=0;entryDx=0;entryDy=0;" parent="1" target="w1Y-Avty2o6jiPsMjraB-29" edge="1">
                    <mxGeometry width="50" height="50" relative="1" as="geometry">
                        <mxPoint x="560" y="280" as="sourcePoint"/>
                        <mxPoint x="550" y="330" as="targetPoint"/>
                    </mxGeometry>
                </mxCell>
                <mxCell id="w1Y-Avty2o6jiPsMjraB-32" value="" style="endArrow=classic;html=1;rounded=0;entryX=0.5;entryY=1;entryDx=0;entryDy=0;" parent="1" target="w1Y-Avty2o6jiPsMjraB-29" edge="1">
                    <mxGeometry width="50" height="50" relative="1" as="geometry">
                        <mxPoint x="560" y="380" as="sourcePoint"/>
                        <mxPoint x="570" y="310" as="targetPoint"/>
                    </mxGeometry>
                </mxCell>
                <mxCell id="w1Y-Avty2o6jiPsMjraB-33" value="" style="endArrow=classic;html=1;rounded=0;exitX=1;exitY=0.5;exitDx=0;exitDy=0;" parent="1" source="w1Y-Avty2o6jiPsMjraB-29" edge="1">
                    <mxGeometry width="50" height="50" relative="1" as="geometry">
                        <mxPoint x="570" y="390" as="sourcePoint"/>
                        <mxPoint x="610" y="320" as="targetPoint"/>
                    </mxGeometry>
                </mxCell>
                <mxCell id="w1Y-Avty2o6jiPsMjraB-35" value="" style="endArrow=none;html=1;rounded=0;endSize=4;startSize=5;jumpSize=6;sourcePerimeterSpacing=0;" parent="1" edge="1">
                    <mxGeometry width="50" height="50" relative="1" as="geometry">
                        <mxPoint x="650" y="290" as="sourcePoint"/>
                        <mxPoint x="610" y="350" as="targetPoint"/>
                    </mxGeometry>
                </mxCell>
                <mxCell id="w1Y-Avty2o6jiPsMjraB-36" value="" style="endArrow=none;html=1;rounded=0;" parent="1" edge="1">
                    <mxGeometry width="50" height="50" relative="1" as="geometry">
                        <mxPoint x="650.3333333333334" y="290" as="sourcePoint"/>
                        <mxPoint x="670" y="290" as="targetPoint"/>
                    </mxGeometry>
                </mxCell>
                <mxCell id="w1Y-Avty2o6jiPsMjraB-37" value="" style="endArrow=none;html=1;rounded=0;" parent="1" edge="1">
                    <mxGeometry width="50" height="50" relative="1" as="geometry">
                        <mxPoint x="590.3333333333334" y="349.83" as="sourcePoint"/>
                        <mxPoint x="610" y="349.83" as="targetPoint"/>
                    </mxGeometry>
                </mxCell>
                <mxCell id="w1Y-Avty2o6jiPsMjraB-34" value="PI" style="whiteSpace=wrap;html=1;aspect=fixed;" parent="1" vertex="1">
                    <mxGeometry x="610" y="300" width="40" height="40" as="geometry"/>
                </mxCell>
                <mxCell id="w1Y-Avty2o6jiPsMjraB-38" value="" style="endArrow=none;html=1;rounded=0;" parent="1" edge="1">
                    <mxGeometry width="50" height="50" relative="1" as="geometry">
                        <mxPoint x="500" y="380" as="sourcePoint"/>
                        <mxPoint x="560" y="380" as="targetPoint"/>
                    </mxGeometry>
                </mxCell>
                <mxCell id="w1Y-Avty2o6jiPsMjraB-39" value="$$P (pu)$$" style="text;html=1;align=center;verticalAlign=middle;resizable=0;points=[];autosize=1;strokeColor=none;fillColor=none;" parent="1" vertex="1">
                    <mxGeometry x="441" y="365" width="80" height="30" as="geometry"/>
                </mxCell>
                <mxCell id="w1Y-Avty2o6jiPsMjraB-40" value="$$\Delta P$$" style="text;html=1;align=center;verticalAlign=middle;resizable=0;points=[];autosize=1;strokeColor=none;fillColor=none;" parent="1" vertex="1">
                    <mxGeometry x="515" y="251" width="90" height="30" as="geometry"/>
                </mxCell>
                <mxCell id="w1Y-Avty2o6jiPsMjraB-41" value="$$I_{p_{min}}$$" style="text;html=1;align=center;verticalAlign=middle;resizable=0;points=[];autosize=1;strokeColor=none;fillColor=none;" parent="1" vertex="1">
                    <mxGeometry x="545" y="350" width="110" height="30" as="geometry"/>
                </mxCell>
                <mxCell id="w1Y-Avty2o6jiPsMjraB-42" value="$$I_{p_{max}}$$" style="text;html=1;align=center;verticalAlign=middle;resizable=0;points=[];autosize=1;strokeColor=none;fillColor=none;" parent="1" vertex="1">
                    <mxGeometry x="610" y="260" width="110" height="30" as="geometry"/>
                </mxCell>
                <mxCell id="w1Y-Avty2o6jiPsMjraB-43" value="" style="endArrow=classic;html=1;rounded=0;exitX=1;exitY=0.5;exitDx=0;exitDy=0;" parent="1" target="w1Y-Avty2o6jiPsMjraB-45" edge="1">
                    <mxGeometry width="50" height="50" relative="1" as="geometry">
                        <mxPoint x="650" y="319.83" as="sourcePoint"/>
                        <mxPoint x="680" y="319.83" as="targetPoint"/>
                    </mxGeometry>
                </mxCell>
                <mxCell id="w1Y-Avty2o6jiPsMjraB-45" value="" style="shape=waypoint;sketch=0;fillStyle=solid;size=6;pointerEvents=1;points=[];fillColor=none;resizable=0;rotatable=0;perimeter=centerPerimeter;snapToPoint=1;" parent="1" vertex="1">
                    <mxGeometry x="690" y="310" width="20" height="20" as="geometry"/>
                </mxCell>
                <mxCell id="w1Y-Avty2o6jiPsMjraB-46" value="" style="shape=waypoint;sketch=0;fillStyle=solid;size=6;pointerEvents=1;points=[];fillColor=none;resizable=0;rotatable=0;perimeter=centerPerimeter;snapToPoint=1;" parent="1" vertex="1">
                    <mxGeometry x="690" y="285" width="20" height="20" as="geometry"/>
                </mxCell>
                <mxCell id="w1Y-Avty2o6jiPsMjraB-47" value="" style="endArrow=none;html=1;rounded=0;" parent="1" source="w1Y-Avty2o6jiPsMjraB-46" edge="1">
                    <mxGeometry width="50" height="50" relative="1" as="geometry">
                        <mxPoint x="510" y="390" as="sourcePoint"/>
                        <mxPoint x="730" y="320" as="targetPoint"/>
                    </mxGeometry>
                </mxCell>
                <mxCell id="w1Y-Avty2o6jiPsMjraB-49" value="" style="endArrow=classic;html=1;rounded=0;" parent="1" edge="1">
                    <mxGeometry width="50" height="50" relative="1" as="geometry">
                        <mxPoint x="730" y="320" as="sourcePoint"/>
                        <mxPoint x="760" y="320" as="targetPoint"/>
                    </mxGeometry>
                </mxCell>
                <mxCell id="w1Y-Avty2o6jiPsMjraB-50" value="" style="endArrow=classic;html=1;rounded=0;" parent="1" edge="1">
                    <mxGeometry width="50" height="50" relative="1" as="geometry">
                        <mxPoint x="720" y="280" as="sourcePoint"/>
                        <mxPoint x="720" y="310" as="targetPoint"/>
                    </mxGeometry>
                </mxCell>
                <mxCell id="w1Y-Avty2o6jiPsMjraB-51" value="$$Block$$" style="text;html=1;align=center;verticalAlign=middle;resizable=0;points=[];autosize=1;strokeColor=none;fillColor=none;" parent="1" vertex="1">
                    <mxGeometry x="680" y="255" width="80" height="30" as="geometry"/>
                </mxCell>
                <mxCell id="w1Y-Avty2o6jiPsMjraB-52" value="$$I_p^* (pu)$$" style="text;html=1;align=center;verticalAlign=middle;resizable=0;points=[];autosize=1;strokeColor=none;fillColor=none;" parent="1" vertex="1">
                    <mxGeometry x="735" y="305" width="100" height="30" as="geometry"/>
                </mxCell>
                <mxCell id="2" value="" style="endArrow=classic;html=1;rounded=0;entryX=0.5;entryY=1;entryDx=0;entryDy=0;" parent="1" target="w1Y-Avty2o6jiPsMjraB-20" edge="1">
                    <mxGeometry width="50" height="50" relative="1" as="geometry">
                        <mxPoint x="410" y="380" as="sourcePoint"/>
                        <mxPoint x="570" y="350" as="targetPoint"/>
                    </mxGeometry>
                </mxCell>
                <mxCell id="3" value="$$r_{p_{fault}}$$" style="text;html=1;align=center;verticalAlign=middle;resizable=0;points=[];autosize=1;strokeColor=none;fillColor=none;" parent="1" vertex="1">
                    <mxGeometry x="359" y="380" width="110" height="30" as="geometry"/>
                </mxCell>
                <mxCell id="4" value="0" style="text;html=1;strokeColor=none;fillColor=none;align=center;verticalAlign=middle;whiteSpace=wrap;rounded=0;" vertex="1" parent="1">
                    <mxGeometry x="661" y="280" width="60" height="30" as="geometry"/>
                </mxCell>
            </root>
        </mxGraphModel>
    </diagram>
</mxfile>